<svg t="1585495194811" class="icon" viewBox="0 0 1024 1024" version="1.1" xmlns="http://www.w3.org/2000/svg" p-id="878" width="128" height="128"><path d="M257.09678406 402.63740682c13.80840823 14.08457639 36.7303659 14.08457639 50.81494231 0.27616815L476.0981386 235.27949906 476.0981386 874.05646381c0 19.6079397 16.01775355 35.62569324 35.9018614 35.62569322s35.9018614-16.01775355 35.9018614-35.62569322l0-638.77696475 168.18641223 167.91024408c14.08457639 13.80840823 36.7303659 13.53224006 50.81494231-0.27616817 13.80840823-14.08457639 13.80840823-36.45419773-0.27616817-50.53877411l-229.21957663-227.56256764c-3.31401797-3.03784979-6.90420412-5.5233633-11.32289475-7.45654044-4.41869063-1.93317715-9.11354943-2.76168163-13.80840824-2.76168165-9.3897176 0-18.22709886 3.59018613-25.13130297 10.21822209l-229.21957661 227.56256764c-14.36074457 13.53224006-14.63691274 36.17802956-0.82850451 50.26260596z" p-id="879"></path></svg>