<svg t="1586056483917" class="icon" viewBox="0 0 1024 1024" version="1.1" xmlns="http://www.w3.org/2000/svg" p-id="1209" width="128" height="128"><path d="M392.53333333 739.55555556s34.13333333 51.2 119.46666667 51.2 119.46666667-51.2 119.46666667-51.2h119.46666666c75.43466667 0 136.53333333 61.09866667 136.53333334 136.53333334v119.46666666c0 9.38666667-7.68 17.06666667-17.06666667 17.06666667H153.6c-9.38666667 0-17.06666667-7.68-17.06666667-17.06666667v-119.46666666c0-75.43466667 61.09866667-136.53333333 136.53333334-136.53333334h119.46666666z" fill="#4FC1E9" p-id="1210"></path><path d="M750.93333333 739.55555556h-68.26666666c75.43466667 0 136.53333333 61.09866667 136.53333333 136.53333334v119.46666666c0 9.38666667-7.68 17.06666667-17.06666667 17.06666667h68.26666667c9.38666667 0 17.06666667-7.68 17.06666667-17.06666667v-119.46666666c0-75.43466667-61.09866667-136.53333333-136.53333334-136.53333334z" fill="#3BAFDA" p-id="1211"></path><path d="M631.46666667 641.76355556V739.55555556s-34.13333333 51.2-119.46666667 51.2-119.46666667-51.2-119.46666667-51.2v-97.792c35.66933333 18.77333333 76.288 29.52533333 119.46666667 29.52533334s83.79733333-10.752 119.46666667-29.52533334z" fill="#EAC6BB" p-id="1212"></path><path d="M768 354.8728889V415.2888889c0 98.13333333-55.296 183.46666667-136.53333333 226.47466666-35.66933333 18.77333333-76.288 29.52533333-119.46666667 29.52533334s-83.79733333-10.752-119.46666667-29.52533334c-81.23733333-43.008-136.53333333-128.34133333-136.53333333-226.47466666v-102.4l102.4-68.26666667 409.6 110.25066667z" fill="#EAC6BB" p-id="1213"></path><path d="M699.73333333 336.4920889V415.2888889c0 98.13333333-55.296 183.46666667-136.53333333 226.47466666a255.488 255.488 0 0 1-85.33333333 27.20426667 255.744 255.744 0 0 0 153.6-27.20426667c81.23733333-43.008 136.53333333-128.34133333 136.53333333-226.47466666v-60.416l-68.26666667-18.3808z" fill="#D3B1A9" p-id="1214"></path><path d="M802.13333333 278.75555556v85.33333334l-34.13333333-9.216L358.4 244.62222223l-102.4 68.26666667v-17.06666667c0-187.73333333 51.2-273.06666667 51.2-273.06666667l85.33333333 19.456A271.90613333 271.90613333 0 0 1 529.06666667 5.6888889c150.86933333 0 273.06666667 122.19733333 273.06666666 273.06666666z" fill="#656D78" p-id="1215"></path><path d="M529.06666667 5.6888889c-11.776 0-23.38133333 0.80213333-34.79893334 2.2528C629.2992 24.4792889 733.86666667 139.23555556 733.86666667 278.75555556v66.93546667l34.13333333 9.18186667 34.13333333 9.216v-85.33333334c0-150.86933333-122.19733333-273.06666667-273.06666666-273.06666666z" fill="#434A54" p-id="1216"></path></svg>