<svg t="1585390712567" class="icon" viewBox="0 0 1024 1024" version="1.1" xmlns="http://www.w3.org/2000/svg" p-id="1695" data-spm-anchor-id="a313x.7781069.0.i11" width="128" height="128"><path d="M364.91012685 62c-47.9294042 0-181.55450566 0-219.31720312 0S62.07824727 115.74216318 62.07824727 145.51467734s0 224.4032543 0 260.71073789 27.59598984 69.35287852 69.35287851 69.35287852 258.16906143-2.54167646 278.50427402-2.54167646c20.33431347 0 49.38191895-18.87909961 49.38191895-40.66772696 0-21.78862734 0-230.93282724 0-275.96169756S412.84043018 62 364.91012685 62zM425.18725947 406.7947294c0 18.57420703-24.07577695 34.66519717-40.92944941 34.66519716-16.85367334 0-196.2199626 2.16663135-230.82939756 2.16663135s-57.48182753-28.16890137-57.48182753-59.11691836 0-196.85493193 0-222.23212647 37.91919112-71.18853398 69.21886992-71.18853397 142.04969033 0 181.77485625 0 78.24694834 42.09146192 78.24694833 80.47473837S425.18725947 388.22142148 425.18725947 406.7947294z" p-id="1696" fill="#ff3f78"></path><path d="M563.83185781 156.40809102c0 45.02797119 0 254.17217109 0 275.96169755 0 21.78862734 29.04850547 40.66772695 49.38191895 40.66772696s236.74558623 2.54167646 278.50427402 2.54167647 69.35287852-33.04539492 69.35287852-69.35287852 0-230.93822373 0-260.71073789-45.75197989-83.51467734-83.51467735-83.51467734-171.3868998 0-219.31720312 0C610.3105455 62 563.83185781 111.3801207 563.83185781 156.40809102zM597.96281709 171.56281661c0-38.38147734 38.52178242-80.47473838 78.24784834-80.47473839 39.72606592 0 150.47607744 0 181.77485624 0 31.29787969 0 69.21886992 45.81134033 69.21886993 71.18853399s0 191.28321035 0 222.23212646-22.87239258 59.11691836-57.48182754 59.11691836-213.97662422-2.16663135-230.82939755-2.16663135c-16.85277422 0-40.92944941-16.09189013-40.92944942-34.66519716C597.96281709 388.22142148 597.96281709 209.94429394 597.96281709 171.56281661z" p-id="1697" fill="#ff3f78"></path><path d="M460.39298926 866.64754883c0-45.00098964 0-254.01927481 0-275.79531094 0-21.77603613-29.0314169-40.64344365-49.35223916-40.64344365s-236.60258379-2.53987822-278.33518916-2.53987822-69.31150664 33.02560898-69.31150664 69.31150664 0 230.79971778 0 260.55334512c0 29.75452646 45.72409922 83.46431162 83.46431162 83.46431162s171.28347012 0 219.18409277 0S460.39298926 911.64853847 460.39298926 866.64754883zM426.28361592 851.50271709c0 38.35899229-38.49839824 80.42527177-78.20107998 80.42527177s-150.38523896 0-181.66603008 0-69.17659805-45.78255967-69.17659805-71.14536386c0-25.3619042 0-191.16718857 0-222.09811787s22.85800224-59.08184209 57.44675127-59.0818421 213.84711123 2.16573135 230.6908916 2.16573135c16.84288037 0 40.90426699 16.08289541 40.904267 34.64451123C426.28271592 634.97452344 426.28361592 813.14372481 426.28361592 851.50271709z" p-id="1698" fill="#ff3f78"></path><path d="M659.19959844 960.9980794c47.90152266 0 181.44388125 0 219.18409278 0 37.7402124 0 83.46431162-53.71068428 83.46431161-83.46431163 0-29.75452646 0-224.2683457 0-260.55334511 0-36.28499854-27.57890127-69.31150664-69.31150664-69.31150664s-258.0134669 2.53987822-278.33518916 2.53987822c-20.32262138 0-49.35223916 18.86740752-49.35223916 40.64344365 0 21.77603613 0 230.79432128 0 275.79531094S611.2989749 960.9980794 659.19959844 960.9980794zM598.95844209 616.41290761c0-18.56161494 24.06138662-34.64451123 40.90426699-34.64451123s196.10214258-2.16573135 230.6908916-2.16573134 57.44675127 28.15091367 57.44675127 59.08184209c0 30.93092842 0 196.73441367 0 222.09811787 0 25.36370332-37.89760518 71.14536387-69.17659804 71.14536387-31.27989199 0-141.96334922 0-181.66513096 0-39.70178261 0-78.20107998-42.06627949-78.20107998-80.42527178C598.95844209 813.14372481 598.95844209 634.97542256 598.95844209 616.41290761z" p-id="1699" fill="#ff3f78"></path></svg>