<svg t="1585644058314" class="icon" viewBox="0 0 1024 1024" version="1.1" xmlns="http://www.w3.org/2000/svg" p-id="1257" width="128" height="128"><path d="M424.64 864.39111113h-296.53333333v-609.06666667l94.93333333 194.88z" fill="#fdc754" p-id="1258"></path><path d="M524.8 136.49777779v728.53333334H208.85333333v-5.86666667h-0.10666666V467.48444446l0.10666666-0.10666667 98.88-103.57333333z" fill="#f9ba33" p-id="1259"></path><path d="M625.17333333 865.03111113h296.64v-609.06666667h-0.10666666L826.88 450.84444446z" fill="#f69b06" p-id="1260"></path><path d="M523.09333333 136.39111113v728.53333333h315.94666667V467.37777779l-98.88-103.68z" fill="#f9ae33" p-id="1261"></path><path d="M523.52 356.97777779l-66.88 74.45333334 66.45333333 61.97333333 70.08-65.6z" fill="#150132" p-id="1262"></path><path d="M942.93333333 709.08444446H115.94666667c-7.04 0-12.8-5.76-12.8-12.8v-4.90666667c0-7.04 5.76-12.8 12.8-12.8H942.93333333c7.04 0 12.8 5.76 12.8 12.8v4.90666667c0 7.04-5.76 12.8-12.8 12.8z" fill="#ffffff" p-id="1263"></path><path d="M170.66666667 693.83111113m-15.25333334 0a15.25333333 15.25333333 0 1 0 30.50666667 0 15.25333333 15.25333333 0 1 0-30.50666667 0Z" fill="#150132" p-id="1264"></path><path d="M307.30666667 694.04444446m-15.25333334 0a15.25333333 15.25333333 0 1 0 30.50666667 0 15.25333333 15.25333333 0 1 0-30.50666667 0Z" fill="#5b042e" p-id="1265"></path><path d="M443.84 694.04444446m-15.25333333 0a15.25333333 15.25333333 0 1 0 30.50666666 0 15.25333333 15.25333333 0 1 0-30.50666666 0Z" fill="#b90a2e" p-id="1266"></path><path d="M580.37333333 694.04444446m-15.25333333 0a15.25333333 15.25333333 0 1 0 30.50666667 0 15.25333333 15.25333333 0 1 0-30.50666667 0Z" fill="#b90a2e" p-id="1267"></path><path d="M720.53333333 694.04444446m-15.25333333 0a15.25333333 15.25333333 0 1 0 30.50666667 0 15.25333333 15.25333333 0 1 0-30.50666667 0Z" fill="#5b042e" p-id="1268"></path><path d="M855.57333333 693.83111113m-15.25333333 0a15.25333333 15.25333333 0 1 0 30.50666667 0 15.25333333 15.25333333 0 1 0-30.50666667 0Z" fill="#150132" p-id="1269"></path></svg>