<svg t="1586056949846" class="icon" viewBox="0 0 1024 1024" version="1.1" xmlns="http://www.w3.org/2000/svg" p-id="1362" width="128" height="128"><path d="M524.23111111 476.50133333a35.49866667 35.49866667 0 0 1 35.4304 35.36213334v300.8512l42.46186667-38.912a38.5024 38.5024 0 0 1 53.11146666 0 34.2016 34.2016 0 0 1 0 49.5616l-102.67306666 102.67306666c-14.19946667 10.58133333-28.33066667 14.1312-42.46186667 7.03146667-3.54986667 0-7.09973333-3.54986667-10.6496-7.03146667L393.22737778 823.296a34.2016 34.2016 0 0 1 0-49.5616 38.5024 38.5024 0 0 1 53.11146666 0l42.46186667 38.912V511.86346667a35.49866667 35.49866667 0 0 1 35.4304-35.4304z m-3.54986667-389.25653333a315.86986667 315.86986667 0 0 1 311.5008 254.83946667 250.53866667 250.53866667 0 0 1 184.04693334 240.70826666 246.23786667 246.23786667 0 0 1-247.808 247.808h-35.36213334V759.808h35.4304a175.24053333 175.24053333 0 0 0 176.9472-177.01546667 175.24053333 175.24053333 0 0 0-176.9472-177.01546666 246.23786667 246.23786667 0 0 0-247.808-247.808 246.23786667 246.23786667 0 0 0-247.808 247.808 175.24053333 175.24053333 0 0 0-176.9472 177.01546666 175.24053333 175.24053333 0 0 0 177.01546667 177.01546667h35.36213333v70.79253333h-35.36213333a246.23786667 246.23786667 0 0 1-247.808-247.808 250.53866667 250.53866667 0 0 1 184.04693333-240.70826666 315.86986667 315.86986667 0 0 1 311.5008-254.83946667z" fill="#316BFF" p-id="1363"></path></svg>