<svg t="1586057015261" class="icon" viewBox="0 0 1024 1024" version="1.1" xmlns="http://www.w3.org/2000/svg" p-id="1630" width="128" height="128"><path d="M118.54414619 362.3229002v85.38769511q0 34.67946797 51.75442353 64.29586289t140.61652383 46.96258623q88.84918388 17.32036026 193.32673155 17.32036026t193.31381602-17.32036026q88.84918388-17.30744385 140.61652382-46.96258623t51.83192022-64.29586289v-85.38769511q-59.80109326 42.18366533-163.29702481 63.77922246t-222.46523525 21.60847265q-119.0338831 0-222.51689825-21.60847265T118.54414619 362.3229002m0 385.76225917v85.37477959q0 34.67946797 51.75442353 64.29586289t140.61652383 46.96258623q88.84918388 17.29452832 193.32673155 17.28161192t193.31381602-17.33327578q88.84918388-17.38493964 140.61652382-46.96258711t51.83192022-64.29586201v-85.33603125q-59.7494294 42.19658174-163.24536094 63.79213798t-222.51689912 21.54389327q-119.0338831 0-222.51689825-21.59555713T118.54414619 748.07224385m0-192.88758779v85.38769511q0 34.67946797 51.75442353 64.29586289t140.61652383 46.96258623q88.92668057 17.30744385 193.39131182 17.33327578t193.32673154-17.33327578q88.84918388-17.28161191 140.62944023-46.96258623t51.74150802-64.28294648v-85.387696q-59.73651386 42.19658174-163.23244542 63.79213887t-222.52981464 21.59555713q-119.0338831 0-222.51689825-21.59555713T118.54414619 555.19757158m51.66401133-428.90170869Q118.54414619 155.91225693 118.46665039 190.5917249v64.29586289q0 34.67946797 51.74150713 64.28294649t140.65527217 46.97550263q88.92668057 17.30744385 193.37839541 17.26869551t193.31381602-17.32035937q88.84918388-17.29452832 140.61652382-46.97550264t51.83192022-64.29586289V190.5917249q0-34.67946797-51.75442354-64.29586201T697.55564112 79.33327578Q608.70645722 62.02583193 504.21599317 62t-193.35256348 17.33327578Q222.0142458 96.71821631 170.23398945 126.29586289" fill="#E8562B" p-id="1631"></path></svg>