<svg t="1585644108607" class="icon" viewBox="0 0 1024 1024" version="1.1" xmlns="http://www.w3.org/2000/svg" p-id="1402" width="128" height="128"><path d="M739.584 959.488L506.88 879.616l-225.28 79.872V574.208h457.984v385.28z" fill="#F14C38" p-id="1403"></path><path d="M281.6 743.68c62.464 52.224 142.848 83.712 230.4 83.712 86.528 0 165.632-30.464 227.584-81.152v-106.496H281.6v103.936z" fill="#D13E33" p-id="1404"></path><path d="M152.064 423.68c0 198.912 161.28 359.936 359.936 359.936s359.936-161.28 359.936-359.936c0-198.912-161.28-359.936-359.936-359.936S152.064 224.768 152.064 423.68z" fill="#FFDA68" p-id="1405"></path><path d="M224.768 423.68c0 158.72 128.512 287.232 287.232 287.232s287.232-128.512 287.232-287.232S670.72 136.192 512 136.192 224.768 264.96 224.768 423.68z" fill="#ED9F2E" p-id="1406"></path><path d="M261.12 423.68c0 138.496 112.384 250.88 250.88 250.88s250.88-112.384 250.88-250.88-112.384-250.88-250.88-250.88-250.88 112.128-250.88 250.88c0-0.256 0 0 0 0z" fill="#FFD255" p-id="1407"></path><path d="M512 280.576l46.336 94.208 103.936 15.104-75.264 73.216 17.92 103.424-92.928-48.896-92.928 48.896 17.92-103.424-75.264-73.216 103.936-15.104 46.336-94.208z" fill="#FFB52D" p-id="1408"></path><path d="M504.832 273.408l46.592 94.208 103.68 15.104-75.008 72.96 17.664 103.424-92.928-48.896-92.672 48.896 17.664-103.424-75.008-73.216 103.68-15.104 46.336-93.952z" fill="#ffffff" p-id="1409"></path></svg>