<svg t="1586057071421" class="icon" viewBox="0 0 1024 1024" version="1.1" xmlns="http://www.w3.org/2000/svg" p-id="1362" width="128" height="128"><path d="M422 411.9996875q30 0 30 30v60q0 30-30 30t-30-30v-60q0-30 30-30zM621.9996875 411.9996875q30 0 30 30v60q0 30-30 30t-30-30v-60q0-30 30-30z" fill="#FF2E2E" p-id="1363"></path><path d="M829.4403125 816.74A438.24 438.24 0 0 0 951.9996875 512c0-242.5996875-197.3596875-439.9996875-439.959375-439.9996875C269.36 71.9 72.0003125 269.3 72.0003125 512c0 242.5996875 197.3596875 439.9996875 439.959375 439.9996875h320.52c15.620625 0 29.780625-9.039375 36.36-23.1a40.0996875 40.0996875 0 0 0-5.4-42.759375m-91.14 1.479375H512C304.8996875 887.6 136.4 719.1003125 136.4 512S304.8996875 136.4 512 136.4 887.6 304.8996875 887.6 512a373.8 373.8 0 0 1-104.6203125 260.1c-30.0796875 31.2-27.6196875 74.34-10.68 115.5196875z" fill="#FF2E2E" p-id="1364"></path></svg>