<svg t="1585838224168" class="icon" viewBox="0 0 1024 1024" version="1.1" xmlns="http://www.w3.org/2000/svg" p-id="1256" width="128" height="128"><path d="M952.65754089 638.70447474c-37.44666158 35.0102199-87.43669207 55.03680834-139.8784525 55.03680676-52.43411551 0-102.42605801-20.02467642-139.87462999-55.03680676-42.50299165-39.89838994-99.98006255-62.52193673-159.91077225-62.52193672-59.92306636 0-117.40778059 22.46684942-159.9031289 62.52193672-37.45812737 35.0102199-87.44815787 55.03680834-139.88800784 55.03680676-52.4302946 0-102.4203251-20.02467642-139.87845248-55.03680676C33.425707 603.69425326 13.39912012 556.30118114 13.39912012 506.31114909c0-127.33890444 52.43793796-244.7485955 144.92522878-334.79371172 94.93328625-89.88842043 219.83192816-139.87845247 352.22334178-139.87845248 134.83549709 0 259.88892433 49.99003205 352.22142979 139.87845248 94.93901917 89.89606533 144.92522876 207.29811305 144.92522875 334.79371172 2.44790592 49.99003205-17.57486007 97.38310418-55.03680833 132.39332565M645.38127733 940.93969492c-35.01213194 35.00639901-82.39756069 54.87820051-132.38759118 54.87820051-49.98812002 0-97.38119217-20.0189435-132.38950318-54.87820051-35.00830945-35.0102199-55.03680834-82.40329202-55.03680835-132.39332406s20.02849888-97.37546083 55.03680835-132.38377029c35.00830945-35.00639901 82.40138158-55.03680834 132.38950318-55.03680835 49.99003205 0 97.37546083 20.02849888 132.38759118 55.03680835 35.00830945 35.00830945 54.88393343 82.39373823 54.88393341 132.38377029 0 47.54785748-19.87371351 94.94092961-54.88393341 132.39332406" fill="#ff3f78" p-id="1257"></path></svg>