<svg t="1586056881476" class="icon" viewBox="0 0 1024 1024" version="1.1" xmlns="http://www.w3.org/2000/svg" p-id="1505" width="128" height="128"><path d="M689.76939663 928.05603446H334.20150882C271.73491346 927.93965546 221.13900882 865.50215546 221.05172437 788.40086218V229.72198236C221.10991346 152.62068991 271.73491346 90.18318991 334.20150882 90.125H689.76939663C752.26508654 90.18318991 802.89008654 152.678879 802.94827563 229.78017227v558.67887983c-0.116379 77.10129327-50.741379 139.5096979-113.178879 139.59698236zM334.20150882 146.1034479c-44.602371 0-65.6379311 28.60021554-65.63793109 83.61853446V788.40086218c0 55.0183189 21.09375 90.04849118 65.63793109 90.04849119h361.93965464c43.991379 0 66.91810337-35.00107773 66.97629327-90.04849119-6.10991346-341.68965546-9.13577563-530.89331891-9.13577564-567.55280209 0-55.0183189-13.29633654-74.77370673-57.84051763-74.77370672H334.23060337z" fill="#fff" p-id="1506"></path><path d="M786.48060337 757.38577563H259.66056009C251.01939663 756.65840546 244.32758654 748.19181009 244.32758654 737.97952563c0-10.18318991 6.69181009-18.678879 15.33297355-19.40625h526.82004328c5.87715546 0 11.31788782 3.69504328 14.25646554 9.68857774a22.40301764 22.40301764 0 0 1 0 19.40625c-2.93857773 6.022629-8.37931009 9.71767227-14.25646554 9.71767226z" fill="#fff" p-id="1507"></path><path d="M453.81034454 788.40086218m29.09482773 0l87.28448319 0q29.09482773 0 29.0948269 29.09482773l0 0q0 29.09482773-29.0948269 29.09482772l-87.28448319 0q-29.09482773 0-29.09482773-29.09482772l0 0q0-29.09482773 29.09482773-29.09482773Z" fill="#fff" p-id="1508"></path></svg>