<svg t="1585891782410" class="icon" viewBox="0 0 1024 1024" version="1.1" xmlns="http://www.w3.org/2000/svg" p-id="1286" width="128" height="128"><path d="M462.618363 776.726927c-11.919705 0-23.839411-4.621927-32.840005-13.62252L238.090034 571.659342c-18.122817-18.122817-18.122817-47.800451 0-65.923269 18.244447-18.122817 47.800451-18.122817 65.923269 0l158.60506 158.483431 405.026725-405.026726c18.122817-18.122817 47.678822-18.122817 65.80164 0 18.122817 18.244447 18.122817 47.678822 0 65.801639L495.458368 763.226036c-9.000594 9.000594-21.041929 13.500891-32.840005 13.500891z m49.381637 231.09633C238.454923 1007.823257 15.872669 785.362632 15.872669 511.817556S238.454923 15.690224 512 15.690224c97.546977 0 192.053213 28.339708 273.058558 81.856753 16.298373 10.825039 21.041929 32.718375 10.095261 49.138378-10.703409 16.298373-32.718375 20.79867-49.260007 9.973631-69.328899-45.854377-150.212614-70.180306-233.893812-70.180307C277.49804 86.478679 86.782753 277.315596 86.782753 511.817556c0 234.50196 190.715287 425.217247 425.217247 425.217246s425.217247-190.715287 425.217247-425.217246c0-14.838817-0.729778-29.677634-2.189334-44.394822-1.946074-19.339114 12.162965-36.732153 31.623708-38.799857 19.460744-2.067704 36.975413 12.162965 38.921487 31.502078 1.702815 17.14978 2.554223 34.54282 2.554223 51.692601 0 273.545077-222.582254 496.005701-496.127331 496.005701z m0 0" fill="#ff3f78" p-id="1287"></path></svg>