<svg t="1585634117109" class="icon" viewBox="0 0 1024 1024" version="1.1" xmlns="http://www.w3.org/2000/svg" p-id="5278" width="128" height="128"><path d="M926.378667 195.515733c-3.959467 12.561067-7.509333 25.3952-12.151467 37.819734-10.922667 29.764267-31.9488 51.882667-57.890133 68.8128-22.391467 14.609067-47.104 22.1184-74.410667 23.3472-42.1888 1.774933-78.779733-10.103467-110.1824-38.365867-3.822933-3.413333-6.9632-4.642133-12.6976-1.2288-54.340267 32.085333-109.090133 63.624533-163.84 95.300267-43.281067 24.9856-86.698667 49.9712-129.979733 74.9568-0.273067 0.136533-0.273067 0.4096-0.8192 1.092266 6.5536 18.978133 11.4688 38.775467 9.693866 59.392-1.2288 13.9264-3.959467 27.716267-7.236266 41.3696-1.2288 5.3248-0.8192 8.055467 3.549866 10.6496 48.605867 30.583467 97.0752 61.303467 145.681067 91.886934 47.650133 30.037333 95.163733 60.074667 142.813867 90.112 1.092267 0.682667 2.594133 0.955733 4.232533 1.365333 24.1664-26.350933 54.8864-41.642667 89.838933-46.148267 26.350933-3.413333 52.8384-0.8192 78.097067 9.693867 34.816 14.472533 61.44 38.365867 78.6432 71.406933 7.099733 13.653333 9.966933 29.4912 14.7456 44.373334 0.4096 1.2288 1.092267 2.321067 1.774933 3.549866v45.602134c-2.8672 9.966933-5.188267 20.206933-8.738133 29.9008-19.933867 53.794133-58.709333 85.742933-114.414933 98.167466-33.723733 7.509333-65.809067 1.911467-96.256-12.151466-27.4432-12.6976-49.152-32.494933-64.580267-58.845867-11.8784-20.343467-18.295467-41.915733-21.162667-65.399467-2.594133-20.343467 1.2288-39.458133 6.280534-58.5728 1.501867-5.7344-0.136533-7.7824-4.232534-10.24-35.362133-22.1184-70.587733-44.373333-105.949866-66.628266-61.166933-38.5024-122.333867-77.0048-183.5008-115.643734-0.955733-0.546133-1.911467-1.092267-1.911467 0.4096-16.247467 10.103467-31.5392 21.981867-48.7424 30.037334-25.258667 11.8784-52.155733 15.5648-80.554667 12.151466-27.0336-3.413333-50.7904-13.1072-72.4992-28.808533-23.620267-17.066667-40.5504-39.7312-51.6096-66.901333-9.0112-22.254933-12.561067-45.602133-10.376533-69.358934 3.003733-32.631467 14.472533-61.986133 36.590933-87.108266 22.9376-26.077867 50.653867-43.144533 84.7872-50.107734 30.173867-6.144 59.255467-3.959467 87.927467 7.099734 17.6128 6.826667 33.314133 16.520533 46.967467 29.627733 2.730667 2.594133 5.188267 4.369067 10.24 1.365333 49.834667-29.218133 99.9424-57.890133 149.9136-86.8352 48.196267-27.8528 96.392533-55.978667 144.5888-83.968 0.273067-0.136533 0.4096-0.4096-0.682667 0.8192-3.003733-20.753067-8.328533-40.1408-8.192-59.528533 0.273067-36.4544 12.6976-69.2224 36.864-97.4848C681.984 43.281067 713.9328 27.306667 750.933333 20.206933c5.7344-1.092267 11.741867-1.365333 17.476267-1.911466h10.513067c0.8192 0.546133 1.774933 1.6384 2.594133 1.6384 26.760533 0 51.063467 8.192 73.454933 22.664533 26.350933 17.066667 47.240533 39.048533 58.845867 68.676267 4.9152 12.561067 8.192 25.668267 12.288 38.5024 0.273067 15.428267 0.273067 30.583467 0.273067 45.738666z m-241.800534-22.801066c-0.8192 49.425067 40.5504 87.381333 85.333334 89.565866 50.517333 2.594133 92.706133-41.915733 93.525333-87.381333 0.955733-50.3808-42.325333-90.385067-86.562133-91.7504-50.926933-1.6384-94.071467 42.052267-92.296534 89.565867z m89.2928 774.417066c48.7424 1.365333 88.610133-40.277333 89.429334-86.8352 0.8192-52.155733-41.642667-91.067733-88.746667-91.7504-49.834667-0.8192-88.064 42.5984-90.248533 86.016-2.594133 51.2 43.008 95.300267 89.565866 92.5696zM130.935467 511.726933c2.730667 51.2 39.594667 89.2928 90.112 89.7024 49.425067 0.4096 89.565867-38.5024 89.7024-89.156266 0.136533-47.377067-37.137067-90.385067-89.7024-90.112-51.746133 0.136533-86.971733 38.775467-90.112 89.565866z" fill="" p-id="5279"></path></svg>